# xmcd
#
# Track frame offsets: 
#        150
#        16423
#        35438
#        50662
#        70165
#        86402
#        102321
#        120969
#        139184
#        154873
#        169757
#        183897
#        201524
#        224080
#        246603
#        276923
#
# Disc length: 3999 seconds
#
# Revision: 2
# Processed by: cddbd v1.5.2PL0 Copyright (c) Steve Scherf et al.
# Submitted via: ExactAudioCopy v0.99pb5
#
DISCID=ef0f9d10
DTITLE=The Gambit - Rosary
DYEAR=2007
DGENRE=Rap
TTITLE0=Blaze and Cruise
TTITLE1=Grillin' (feat. Psycho Les of The Beatnuts)
TTITLE2=Snake Styles
TTITLE3=G.A.M.B.I.T.
TTITLE4=5-0 (Don't Stop)
TTITLE5=What's Real Is Real
TTITLE6=Illustrious (Opium)
TTITLE7=Hoo-ha! (Hood High)
TTITLE8=We Like It, We Ride It (feat. Alexander)
TTITLE9=Boomerang
TTITLE10=Slowin' Down
TTITLE11=Celsius Scale
TTITLE12=Unconditional Love
TTITLE13=Farewell My Lovely One
TTITLE14=Rosary (feat. Marika Krook)
TTITLE15=DATA (VIDEO - Cos My Clique Is (feat. Samuel))
EXTD=
EXTT0=
EXTT1=
EXTT2=
EXTT3=
EXTT4=
EXTT5=
EXTT6=
EXTT7=
EXTT8=
EXTT9=
EXTT10=
EXTT11=
EXTT12=
EXTT13=
EXTT14=
EXTT15=
PLAYORDER=
